<svg width="24" height="24" viewBox="0 0 24 24" fill="none" xmlns="http://www.w3.org/2000/svg">
<path fill-rule="evenodd" clip-rule="evenodd" d="M15.5396 2.99375H16.4669C20.5948 2.99375 23.9522 6.35118 23.9552 10.4801V14.4723C23.9552 17.696 21.9032 20.4417 19.0408 21.4936L19.9101 23.2322C20.0328 23.4788 19.933 23.7782 19.6865 23.9019C19.6146 23.9378 19.5388 23.9548 19.464 23.9548C19.2803 23.9548 19.1047 23.854 19.0168 23.6794L18.0687 21.7831C17.5527 21.8969 17.0177 21.9597 16.4688 21.9597H7.48636C6.93647 21.9597 6.40248 21.8959 5.8865 21.7831L4.93834 23.6794C4.85053 23.854 4.67485 23.9548 4.49123 23.9548C4.41637 23.9548 4.34054 23.9378 4.26868 23.9019C4.02213 23.7781 3.92136 23.4787 4.0451 23.2322L4.91439 21.4936C2.05099 20.4407 0 17.695 0 14.4723V10.4802C0 6.35221 3.35743 2.99478 7.48538 2.99478H9.86274L6.76379 1.44479C6.51724 1.321 6.41647 1.02159 6.54021 0.775086C6.664 0.528536 6.96342 0.427764 7.20992 0.551507L12.0265 2.95983L22.3194 0.0185475C22.5839 -0.0542946 22.8604 0.0963955 22.9362 0.361893C23.0111 0.62636 22.8584 0.902852 22.5929 0.978688L15.5396 2.99375ZM11.4766 18.9625C14.5037 18.9625 16.9658 16.5004 16.9658 13.4733V11.4772C16.9658 8.45008 14.5037 5.9879 11.4766 5.9879H8.48243C5.45535 5.9879 2.99317 8.45008 2.99317 11.4772V13.4733C2.99317 16.5004 5.45535 18.9625 8.48243 18.9625H11.4766ZM19.96 6.98594C20.5099 6.98594 20.958 7.43408 20.958 7.98397C20.958 8.53392 20.5099 8.98201 19.96 8.98201C19.4101 8.98201 18.962 8.53387 18.962 7.98397C18.962 7.43408 19.4101 6.98594 19.96 6.98594ZM18.962 16.9665C18.962 17.5164 19.4101 17.9645 19.96 17.9645C20.5099 17.9645 20.9581 17.5164 20.958 16.9665C20.958 16.4166 20.5099 15.9684 19.96 15.9684C19.4101 15.9684 18.962 16.4165 18.962 16.9665ZM21.4571 13.9723H19.461C19.1855 13.9723 18.9619 13.7487 18.9619 13.4733C18.9619 13.1978 19.1855 12.9742 19.461 12.9742H21.4571C21.7325 12.9742 21.9561 13.1978 21.9561 13.4733C21.9561 13.7487 21.7325 13.9723 21.4571 13.9723ZM19.461 11.9762H21.4571C21.7325 11.9762 21.9561 11.7526 21.9561 11.4772C21.9561 11.2017 21.7325 10.9781 21.4571 10.9781H19.461C19.1855 10.9781 18.9619 11.2017 18.9619 11.4772C18.9619 11.7526 19.1855 11.9762 19.461 11.9762Z" fill="#6155CC"/>
</svg>
